<svg xmlns="http://www.w3.org/2000/svg" version="1.1" xmlns:xlink="http://www.w3.org/1999/xlink" width="1000" height="1000"><g clip-path="url(#SvgjsClipPath1149)"><rect width="1000" height="1000" fill="#0e0e0e"></rect><g transform="matrix(1.530612244897959,0,0,1.530612244897959,200,255.10204081632654)"><svg xmlns="http://www.w3.org/2000/svg" version="1.1" xmlns:xlink="http://www.w3.org/1999/xlink" width="392" height="320"><svg width="392" height="320" viewBox="0 0 392 320" fill="none" xmlns="http://www.w3.org/2000/svg">
<path fill-rule="evenodd" clip-rule="evenodd" d="M194.6 226.06C199.05 214.7 200.98 203.55 205.04 193C224.77 141.67 262.16 105.07 315.97 86.4099C326.43 82.7899 338.76 79.5499 351.64 78.5799C364.34 77.6199 378.52 77.0899 391.66 80.7499C392.76 149.19 371.81 202.18 341.63 242.15C327.02 261.5 308.72 280.27 287.25 293.92C265.68 307.64 250.87 318.53 219.52 319.59C211.32 309.81 199.82 291.89 194.16 279.57C188.85 292.25 176.15 309.18 168.58 319.59C137.68 317.44 123.73 306.03 102.37 291.75C80.8602 277.36 63.3202 259.74 48.4302 239.55C18.8302 199.42 -2.4298 145.4 0.570204 76.8499C18.7002 71.6399 45.1602 74.4899 64.0902 79.4699C93.5202 87.2099 114.35 99.7099 134.57 116.89C143.87 124.79 154.54 135.02 160.67 144.73C164.29 150.46 167.53 157.06 171.11 163.44C174.54 169.57 177.84 176.05 180.68 182.58C186.68 196.38 190.68 211.35 194.61 226.08L194.6 226.06Z" fill="white"></path>
<path d="M196 106.78C225.216 106.78 248.9 83.0958 248.9 53.88C248.9 24.6641 225.216 0.97998 196 0.97998C166.784 0.97998 143.1 24.6641 143.1 53.88C143.1 83.0958 166.784 106.78 196 106.78Z" fill="white"></path>
</svg></svg></g></g><defs><clipPath id="SvgjsClipPath1149"><rect width="1000" height="1000" x="0" y="0" rx="350" ry="350"></rect></clipPath></defs></svg>